<svg xmlns="http://www.w3.org/2000/svg" viewBox="0 0 32 32">
    <style type="text/css">
        .st0{fill:#020203;}
    </style>
    <g>
        <path class="st0" d="M30.8,13c-0.6-0.2-1.6-0.3-2.1-0.3c-0.3,0-0.5,0-0.7,0h-0.3c0.2-0.8,0.3-1.2,0.3-1.6c0-0.7-0.4-1.1-1.3-1.2 c-0.5-0.1-1.1-0.2-2.2-0.2c-2.6,0-5.2,0.6-7.8,2.2c-2.5-1.6-5.2-2.2-7.8-2.2c-1,0-1.8,0.1-2.2,0.2c-0.9,0.1-1.3,0.5-1.3,1.2 c0,0.3,0.1,0.7,0.3,1.6H5.3c-0.2,0-0.4,0-0.7,0c-0.5,0-1.5,0.1-2.1,0.3c-0.8,0.3-1.1,0.9-0.5,2.1c0.7,1.5,4.7,9,4.7,9L6.7,24 c2.7-0.7,7.1-0.9,9.6-0.9h0.3h0.3c2.5,0,6.9,0.2,9.6,0.9l0.1,0.1c0,0,3.9-7.5,4.7-9C31.9,13.8,31.5,13.2,30.8,13z M8.3,22.3 c-0.2,0-0.8,0.1-1,0.2H7.2l-3.9-8.2C3.9,14,5.2,13.9,6,14l2.5,8.2H8.3z M15.8,21.7h-0.5c-2,0-3.5,0.1-5,0.3L9.8,22l-0.1-0.3L7,11.3 c2.7-0.5,6.2,0,8.8,1.6L15.8,21.7L15.8,21.7z M23.4,22.1L22.8,22c-1.4-0.1-3-0.3-5-0.3h-0.5V13c2.6-1.6,6.1-2.2,8.8-1.6l-2.7,10.3 L23.4,22.1z M26,22.5h-0.1c-0.2-0.1-0.8-0.1-1-0.2h-0.1l2.5-8.2c0.7-0.1,2-0.1,2.7,0.2L26,22.5z"/>
        <path class="st0" d="M13.8,7c0,1.2,1.2,2.2,2.7,2.2c1.6,0,2.8-1,2.8-2.2c0-1-0.9-1.9-2.1-2.1V3.3h1.7V1.9h-1.7V0.2h-1.3v1.7h-1.7 v1.3h1.7v1.6C14.7,5.1,13.8,6,13.8,7z M16.5,5.8c0.9,0,1.6,0.5,1.6,1.1c0,0.6-0.7,1.1-1.6,1.1C15.7,8,15,7.6,15,7 C15,6.4,15.7,5.8,16.5,5.8z"/>
        <path class="st0" d="M6.5,26.2l0.1,1.6c0,0,2.9-1.1,10-1.1s9.9,1.1,9.9,1.1l0.1-1.6c0,0-2.8-1.1-10-1.1S6.5,26.2,6.5,26.2z"/>
    </g>
</svg>
